<mxfile host="app.diagrams.net" modified="2024-05-15T15:25:40.778Z" agent="Mozilla/5.0 (Windows NT 10.0; Win64; x64) AppleWebKit/537.36 (KHTML, like Gecko) Chrome/123.0.0.0 Safari/537.36 OPR/109.0.0.0" etag="SO8Bf5YEOIfbLSxd1wZp" version="24.4.0" type="github">
  <diagram name="Página-1" id="6scj0DIWc3hFdIHVgguj">
    <mxGraphModel dx="1393" dy="789" grid="1" gridSize="10" guides="1" tooltips="1" connect="1" arrows="1" fold="1" page="1" pageScale="1" pageWidth="827" pageHeight="1169" math="0" shadow="0">
      <root>
        <mxCell id="0" />
        <mxCell id="1" parent="0" />
        <mxCell id="eoMiszMhLniR91pcN-sQ-6" style="edgeStyle=orthogonalEdgeStyle;rounded=0;orthogonalLoop=1;jettySize=auto;html=1;exitX=0.5;exitY=1;exitDx=0;exitDy=0;entryX=0.5;entryY=0;entryDx=0;entryDy=0;" parent="1" source="eoMiszMhLniR91pcN-sQ-3" target="eoMiszMhLniR91pcN-sQ-4" edge="1">
          <mxGeometry relative="1" as="geometry">
            <mxPoint x="414" y="270" as="targetPoint" />
          </mxGeometry>
        </mxCell>
        <mxCell id="eoMiszMhLniR91pcN-sQ-3" value="&lt;p style=&quot;margin:0px;margin-top:4px;text-align:center;&quot;&gt;&lt;i&gt;&amp;lt;&amp;lt;Interface&amp;gt;&amp;gt;&lt;/i&gt;&lt;br&gt;&lt;b&gt;Produto&lt;/b&gt;&lt;/p&gt;&lt;hr size=&quot;1&quot; style=&quot;border-style:solid;&quot;&gt;&lt;p style=&quot;margin:0px;margin-left:4px;&quot;&gt;+ inserirProduto(DadosProduto): void&lt;br&gt;&lt;/p&gt;&lt;p style=&quot;margin:0px;margin-left:4px;&quot;&gt;+ buscarProduto(String): dadosProduto&lt;/p&gt;&lt;p style=&quot;margin:0px;margin-left:4px;&quot;&gt;+ buscarProduto(Array&amp;lt;String&amp;gt;): Array&amp;lt;DadosProduto&amp;gt;&lt;/p&gt;&lt;p style=&quot;margin:0px;margin-left:4px;&quot;&gt;+ buscarTodosProdutos(): Array&amp;lt;DadosProduto&amp;gt;&lt;/p&gt;&lt;p style=&quot;margin:0px;margin-left:4px;&quot;&gt;+ editarProduto(DadosProduto): void&lt;/p&gt;&lt;p style=&quot;margin:0px;margin-left:4px;&quot;&gt;+ excluirProduto(String): void&lt;/p&gt;" style="verticalAlign=top;align=left;overflow=fill;html=1;whiteSpace=wrap;" parent="1" vertex="1">
          <mxGeometry x="274" y="40" width="280" height="160" as="geometry" />
        </mxCell>
        <mxCell id="QJ0ZtOFXj5oyj-p_LAbp-7" style="edgeStyle=orthogonalEdgeStyle;rounded=0;orthogonalLoop=1;jettySize=auto;html=1;exitX=0;exitY=0.5;exitDx=0;exitDy=0;entryX=0;entryY=0.5;entryDx=0;entryDy=0;" edge="1" parent="1" source="eoMiszMhLniR91pcN-sQ-4" target="QJ0ZtOFXj5oyj-p_LAbp-1">
          <mxGeometry relative="1" as="geometry" />
        </mxCell>
        <mxCell id="QJ0ZtOFXj5oyj-p_LAbp-8" style="edgeStyle=orthogonalEdgeStyle;rounded=0;orthogonalLoop=1;jettySize=auto;html=1;exitX=0;exitY=0.5;exitDx=0;exitDy=0;entryX=0;entryY=0.5;entryDx=0;entryDy=0;" edge="1" parent="1" source="eoMiszMhLniR91pcN-sQ-4" target="QJ0ZtOFXj5oyj-p_LAbp-3">
          <mxGeometry relative="1" as="geometry" />
        </mxCell>
        <mxCell id="QJ0ZtOFXj5oyj-p_LAbp-9" style="edgeStyle=orthogonalEdgeStyle;rounded=0;orthogonalLoop=1;jettySize=auto;html=1;exitX=0;exitY=0.5;exitDx=0;exitDy=0;entryX=0;entryY=0.5;entryDx=0;entryDy=0;" edge="1" parent="1" source="eoMiszMhLniR91pcN-sQ-4" target="QJ0ZtOFXj5oyj-p_LAbp-2">
          <mxGeometry relative="1" as="geometry">
            <Array as="points">
              <mxPoint x="140" y="340" />
              <mxPoint x="140" y="690" />
            </Array>
          </mxGeometry>
        </mxCell>
        <mxCell id="QJ0ZtOFXj5oyj-p_LAbp-10" style="edgeStyle=orthogonalEdgeStyle;rounded=0;orthogonalLoop=1;jettySize=auto;html=1;exitX=1;exitY=0.5;exitDx=0;exitDy=0;entryX=1;entryY=0.5;entryDx=0;entryDy=0;" edge="1" parent="1" source="eoMiszMhLniR91pcN-sQ-4" target="QJ0ZtOFXj5oyj-p_LAbp-6">
          <mxGeometry relative="1" as="geometry" />
        </mxCell>
        <mxCell id="QJ0ZtOFXj5oyj-p_LAbp-11" style="edgeStyle=orthogonalEdgeStyle;rounded=0;orthogonalLoop=1;jettySize=auto;html=1;exitX=1;exitY=0.5;exitDx=0;exitDy=0;entryX=1;entryY=0.5;entryDx=0;entryDy=0;" edge="1" parent="1" source="eoMiszMhLniR91pcN-sQ-4" target="QJ0ZtOFXj5oyj-p_LAbp-5">
          <mxGeometry relative="1" as="geometry" />
        </mxCell>
        <mxCell id="QJ0ZtOFXj5oyj-p_LAbp-12" style="edgeStyle=orthogonalEdgeStyle;rounded=0;orthogonalLoop=1;jettySize=auto;html=1;exitX=1;exitY=0.5;exitDx=0;exitDy=0;entryX=1;entryY=0.5;entryDx=0;entryDy=0;" edge="1" parent="1" source="eoMiszMhLniR91pcN-sQ-4" target="QJ0ZtOFXj5oyj-p_LAbp-4">
          <mxGeometry relative="1" as="geometry">
            <Array as="points">
              <mxPoint x="700" y="340" />
              <mxPoint x="700" y="690" />
            </Array>
          </mxGeometry>
        </mxCell>
        <mxCell id="eoMiszMhLniR91pcN-sQ-4" value="&lt;p style=&quot;margin:0px;margin-top:4px;text-align:center;&quot;&gt;&lt;i&gt;&amp;lt;&amp;lt;MiddleWare&amp;gt;&amp;gt;&lt;/i&gt;&lt;br&gt;&lt;b&gt;Produto&lt;/b&gt;&lt;/p&gt;&lt;hr size=&quot;1&quot; style=&quot;border-style:solid;&quot;&gt;&lt;p style=&quot;margin:0px;margin-left:4px;&quot;&gt;+ inserirProduto(DadosProduto): void&lt;br&gt;&lt;/p&gt;&lt;p style=&quot;margin:0px;margin-left:4px;&quot;&gt;+ buscarProduto(String): DadosProduto&lt;/p&gt;&lt;p style=&quot;margin:0px;margin-left:4px;&quot;&gt;+ buscarProduto(Array&amp;lt;String&amp;gt;): Array&amp;lt;DadosProduto&amp;gt;&lt;/p&gt;&lt;p style=&quot;margin:0px;margin-left:4px;&quot;&gt;+ buscarTodosProdutos(): Array&amp;lt;DadosProduto&amp;gt;&lt;/p&gt;&lt;p style=&quot;margin:0px;margin-left:4px;&quot;&gt;+ editarProduto(DadosProduto): void&lt;/p&gt;&lt;p style=&quot;margin:0px;margin-left:4px;&quot;&gt;+ excluirProduto(String): void&lt;/p&gt;" style="verticalAlign=top;align=left;overflow=fill;html=1;whiteSpace=wrap;" parent="1" vertex="1">
          <mxGeometry x="274" y="260" width="280" height="160" as="geometry" />
        </mxCell>
        <mxCell id="eoMiszMhLniR91pcN-sQ-11" style="edgeStyle=orthogonalEdgeStyle;rounded=0;orthogonalLoop=1;jettySize=auto;html=1;exitX=0.5;exitY=1;exitDx=0;exitDy=0;" parent="1" source="eoMiszMhLniR91pcN-sQ-9" target="eoMiszMhLniR91pcN-sQ-12" edge="1">
          <mxGeometry relative="1" as="geometry">
            <mxPoint x="414" y="980" as="targetPoint" />
          </mxGeometry>
        </mxCell>
        <mxCell id="eoMiszMhLniR91pcN-sQ-9" value="&lt;p style=&quot;margin:0px;margin-top:4px;text-align:center;&quot;&gt;&lt;b&gt;Produto&lt;/b&gt;&lt;/p&gt;&lt;hr size=&quot;1&quot; style=&quot;border-style:solid;&quot;&gt;&lt;p style=&quot;margin:0px;margin-left:4px;&quot;&gt;+ inserirProduto(DadosProduto): void&lt;br&gt;&lt;/p&gt;&lt;p style=&quot;margin:0px;margin-left:4px;&quot;&gt;+ buscarProduto(String): dadosProduto&lt;/p&gt;&lt;p style=&quot;margin:0px;margin-left:4px;&quot;&gt;+ buscarProduto(Array&amp;lt;String&amp;gt;): Array&amp;lt;DadosProduto&amp;gt;&lt;/p&gt;&lt;p style=&quot;margin:0px;margin-left:4px;&quot;&gt;+ buscarTodosProdutos(): Array&amp;lt;DadosProduto&amp;gt;&lt;/p&gt;&lt;p style=&quot;margin:0px;margin-left:4px;&quot;&gt;+ editarProduto(DadosProduto): void&lt;/p&gt;&lt;p style=&quot;margin:0px;margin-left:4px;&quot;&gt;+ excluirProduto(String): void&lt;/p&gt;" style="verticalAlign=top;align=left;overflow=fill;html=1;whiteSpace=wrap;" parent="1" vertex="1">
          <mxGeometry x="274" y="760" width="280" height="160" as="geometry" />
        </mxCell>
        <mxCell id="eoMiszMhLniR91pcN-sQ-12" value="BD" style="shape=cylinder3;whiteSpace=wrap;html=1;boundedLbl=1;backgroundOutline=1;size=15;" parent="1" vertex="1">
          <mxGeometry x="384" y="940" width="60" height="80" as="geometry" />
        </mxCell>
        <mxCell id="QJ0ZtOFXj5oyj-p_LAbp-13" style="edgeStyle=orthogonalEdgeStyle;rounded=0;orthogonalLoop=1;jettySize=auto;html=1;exitX=1;exitY=0.5;exitDx=0;exitDy=0;entryX=0.5;entryY=0;entryDx=0;entryDy=0;" edge="1" parent="1" source="QJ0ZtOFXj5oyj-p_LAbp-1" target="eoMiszMhLniR91pcN-sQ-9">
          <mxGeometry relative="1" as="geometry" />
        </mxCell>
        <mxCell id="QJ0ZtOFXj5oyj-p_LAbp-1" value="&lt;p style=&quot;margin:0px;margin-top:4px;text-align:center;&quot;&gt;&lt;i&gt;&amp;lt;&amp;lt;Component&amp;gt;&amp;gt;&lt;/i&gt;&lt;br&gt;&lt;b&gt;inserirProduto&lt;/b&gt;&lt;/p&gt;&lt;hr size=&quot;1&quot; style=&quot;border-style:solid;&quot;&gt;&lt;p style=&quot;margin:0px;margin-left:4px;&quot;&gt;&amp;gt; entrada: DadosProduto&lt;/p&gt;&lt;p style=&quot;margin:0px;margin-left:4px;&quot;&gt;&amp;lt; saída: void&lt;/p&gt;" style="verticalAlign=top;align=left;overflow=fill;html=1;whiteSpace=wrap;" vertex="1" parent="1">
          <mxGeometry x="200" y="440" width="146" height="80" as="geometry" />
        </mxCell>
        <mxCell id="QJ0ZtOFXj5oyj-p_LAbp-18" style="edgeStyle=orthogonalEdgeStyle;rounded=0;orthogonalLoop=1;jettySize=auto;html=1;exitX=1;exitY=0.5;exitDx=0;exitDy=0;" edge="1" parent="1" source="QJ0ZtOFXj5oyj-p_LAbp-2" target="eoMiszMhLniR91pcN-sQ-9">
          <mxGeometry relative="1" as="geometry" />
        </mxCell>
        <mxCell id="QJ0ZtOFXj5oyj-p_LAbp-2" value="&lt;p style=&quot;margin:0px;margin-top:4px;text-align:center;&quot;&gt;&lt;i&gt;&amp;lt;&amp;lt;Component&amp;gt;&amp;gt;&lt;/i&gt;&lt;br&gt;&lt;b&gt;editarProduto&lt;/b&gt;&lt;/p&gt;&lt;hr size=&quot;1&quot; style=&quot;border-style:solid;&quot;&gt;&lt;p style=&quot;margin:0px;margin-left:4px;&quot;&gt;&amp;gt; entrada: DadosProduto&lt;/p&gt;&lt;p style=&quot;margin:0px;margin-left:4px;&quot;&gt;&amp;lt; saída: void&lt;/p&gt;" style="verticalAlign=top;align=left;overflow=fill;html=1;whiteSpace=wrap;" vertex="1" parent="1">
          <mxGeometry x="200" y="650" width="146" height="80" as="geometry" />
        </mxCell>
        <mxCell id="QJ0ZtOFXj5oyj-p_LAbp-15" style="edgeStyle=orthogonalEdgeStyle;rounded=0;orthogonalLoop=1;jettySize=auto;html=1;exitX=1;exitY=0.5;exitDx=0;exitDy=0;" edge="1" parent="1" source="QJ0ZtOFXj5oyj-p_LAbp-3" target="eoMiszMhLniR91pcN-sQ-9">
          <mxGeometry relative="1" as="geometry" />
        </mxCell>
        <mxCell id="QJ0ZtOFXj5oyj-p_LAbp-3" value="&lt;p style=&quot;margin:0px;margin-top:4px;text-align:center;&quot;&gt;&lt;i&gt;&amp;lt;&amp;lt;Component&amp;gt;&amp;gt;&lt;/i&gt;&lt;br&gt;&lt;b&gt;buscarTodosProdutos&lt;/b&gt;&lt;/p&gt;&lt;hr size=&quot;1&quot; style=&quot;border-style:solid;&quot;&gt;&lt;p style=&quot;margin:0px;margin-left:4px;&quot;&gt;&amp;gt; entrada: void&lt;/p&gt;&lt;p style=&quot;margin:0px;margin-left:4px;&quot;&gt;&amp;lt; saída: Array&amp;lt;DadosProduto&amp;gt;&lt;/p&gt;" style="verticalAlign=top;align=left;overflow=fill;html=1;whiteSpace=wrap;" vertex="1" parent="1">
          <mxGeometry x="166" y="545" width="180" height="80" as="geometry" />
        </mxCell>
        <mxCell id="QJ0ZtOFXj5oyj-p_LAbp-17" style="edgeStyle=orthogonalEdgeStyle;rounded=0;orthogonalLoop=1;jettySize=auto;html=1;exitX=0;exitY=0.5;exitDx=0;exitDy=0;" edge="1" parent="1" source="QJ0ZtOFXj5oyj-p_LAbp-4" target="eoMiszMhLniR91pcN-sQ-9">
          <mxGeometry relative="1" as="geometry" />
        </mxCell>
        <mxCell id="QJ0ZtOFXj5oyj-p_LAbp-4" value="&lt;p style=&quot;margin:0px;margin-top:4px;text-align:center;&quot;&gt;&lt;i&gt;&amp;lt;&amp;lt;Component&amp;gt;&amp;gt;&lt;/i&gt;&lt;br&gt;&lt;b&gt;excluirProduto&lt;/b&gt;&lt;/p&gt;&lt;hr size=&quot;1&quot; style=&quot;border-style:solid;&quot;&gt;&lt;p style=&quot;margin:0px;margin-left:4px;&quot;&gt;&amp;gt; entrada: String&lt;/p&gt;&lt;p style=&quot;margin:0px;margin-left:4px;&quot;&gt;&amp;lt; saída: void&lt;/p&gt;" style="verticalAlign=top;align=left;overflow=fill;html=1;whiteSpace=wrap;" vertex="1" parent="1">
          <mxGeometry x="480" y="650" width="146" height="80" as="geometry" />
        </mxCell>
        <mxCell id="QJ0ZtOFXj5oyj-p_LAbp-16" style="edgeStyle=orthogonalEdgeStyle;rounded=0;orthogonalLoop=1;jettySize=auto;html=1;exitX=0;exitY=0.5;exitDx=0;exitDy=0;" edge="1" parent="1" source="QJ0ZtOFXj5oyj-p_LAbp-5" target="eoMiszMhLniR91pcN-sQ-9">
          <mxGeometry relative="1" as="geometry" />
        </mxCell>
        <mxCell id="QJ0ZtOFXj5oyj-p_LAbp-5" value="&lt;p style=&quot;margin:0px;margin-top:4px;text-align:center;&quot;&gt;&lt;i&gt;&amp;lt;&amp;lt;Component&amp;gt;&amp;gt;&lt;/i&gt;&lt;br&gt;&lt;b&gt;buscarProduto&lt;/b&gt;&lt;/p&gt;&lt;hr size=&quot;1&quot; style=&quot;border-style:solid;&quot;&gt;&lt;p style=&quot;margin:0px;margin-left:4px;&quot;&gt;&amp;gt; entrada: Array&amp;lt;String&amp;gt;&lt;/p&gt;&lt;p style=&quot;margin:0px;margin-left:4px;&quot;&gt;&amp;lt; saída: Array&amp;lt;DadosProduto&amp;gt;&lt;/p&gt;" style="verticalAlign=top;align=left;overflow=fill;html=1;whiteSpace=wrap;" vertex="1" parent="1">
          <mxGeometry x="480" y="545" width="190" height="80" as="geometry" />
        </mxCell>
        <mxCell id="QJ0ZtOFXj5oyj-p_LAbp-14" style="edgeStyle=orthogonalEdgeStyle;rounded=0;orthogonalLoop=1;jettySize=auto;html=1;exitX=0;exitY=0.5;exitDx=0;exitDy=0;" edge="1" parent="1" source="QJ0ZtOFXj5oyj-p_LAbp-6" target="eoMiszMhLniR91pcN-sQ-9">
          <mxGeometry relative="1" as="geometry" />
        </mxCell>
        <mxCell id="QJ0ZtOFXj5oyj-p_LAbp-6" value="&lt;p style=&quot;margin:0px;margin-top:4px;text-align:center;&quot;&gt;&lt;i&gt;&amp;lt;&amp;lt;Component&amp;gt;&amp;gt;&lt;/i&gt;&lt;br&gt;&lt;b&gt;buscarProduto&lt;/b&gt;&lt;/p&gt;&lt;hr size=&quot;1&quot; style=&quot;border-style:solid;&quot;&gt;&lt;p style=&quot;margin:0px;margin-left:4px;&quot;&gt;&amp;gt; entrada: String&lt;/p&gt;&lt;p style=&quot;margin:0px;margin-left:4px;&quot;&gt;&amp;lt; saída: DadosProduto&lt;/p&gt;" style="verticalAlign=top;align=left;overflow=fill;html=1;whiteSpace=wrap;" vertex="1" parent="1">
          <mxGeometry x="480" y="440" width="146" height="80" as="geometry" />
        </mxCell>
      </root>
    </mxGraphModel>
  </diagram>
</mxfile>
